<?xml version="1.0" encoding="utf-8"?>
<!-- Generator: Adobe Illustrator 16.0.0, SVG Export Plug-In . SVG Version: 6.00 Build 0)  -->
<!DOCTYPE svg PUBLIC "-//W3C//DTD SVG 1.1//EN" "http://www.w3.org/Graphics/SVG/1.1/DTD/svg11.dtd">
<svg version="1.1" id="Layer_1" xmlns="http://www.w3.org/2000/svg" xmlns:xlink="http://www.w3.org/1999/xlink" x="0px" y="0px"
	 width="864px" height="864px" viewBox="0 0 864 864" enable-background="new 0 0 864 864" xml:space="preserve">
<path d="M836.329,538.46c6.648,10.611,2.955,27.377,0,30.817c-13.71,20.425-31.631,30.225-56.671,20.711
	c2.459,30.931-6.523,47.15-28.546,53.497c-20.914,6.025-38.545-4.415-51.323-31.191c-4.849,6.903-9.348,13.308-14.525,20.681
	c26.379,1.949,42.634,13.826,44.341,33.104c0.78,8.813-1.281,19.418-4.618,26.434c-5.736,12.06-22.128,23.803-33.73,26.192
	c12.977,21.066,10.95,42.871-7.362,56.663c-18.86,14.202-39.892,10.044-61.009-12.062c-14.278,23.885-29.984,33.129-50.323,26.725
	c-26.978-8.498-33.106-29.401-27.47-56.177c-8.485,2.844-15.197,5.093-22.467,7.529c20.961,21.287,25.484,38.3,13.881,56.331
	c-4.298,6.679-11.303,14.703-18.2,15.969c-12.148,3.185-29.029,5.142-42.812,0.739c2.614,18.054-9.228,30.752-25.783,40.618
	c-9.61,5.375-18.907,4.642-28.017,0c-17.307-9.673-27.735-23.618-25.924-44.839c-26.801,10.943-46.043,9.485-56.847-6.961
	c-5.903-8.984-9.864-21.947-8.468-32.272c1.446-10.689,10.434-20.358,16.139-30.504c-5.84-1.815-12.625-3.925-20.117-6.253
	c3.923,30.497-3.406,48.538-24.22,54.229c-9.958,2.722-22.811,2.056-32.12-2.091c-9.12-4.062-15.403-14.493-22.912-22.107
	c-18.02,20.359-39.62,25.836-57.665,11.959c-7.243-5.569-14.96-14.895-15.907-23.254c-1.403-12.387,3.029-25.435,5.056-38.721
	c-28.704-8.68-39.474-20.827-37.628-44.826c1.615-21.03,15.994-33.257,44.798-37.012c-4.908-6.8-9.407-13.032-14.165-19.625
	c-13.1,25.607-29.149,36.536-48.628,31.137c-8.469-2.348-18.791-7.412-22.781-14.385c-6.466-11.298-8.407-25.186-12.351-38.282
	c-24.425,5.078-42.879-1.328-50.025-21.12c-3.149-8.725-5.417-20.978-1.627-28.275c6.317-12.165,14.455-23.022,27.384-32.496
	c-16.439-16.688-19.536-35.53-6.9-53.782c12.892-18.622,32.342-21.262,61.244-7.958c0-7.788,0-15.301,0-23.091
	c-27.712,12.523-45.837,11.454-58.512-5.062c-5.112-6.662-10.394-16.323-9.428-23.826c1.659-12.898,8.156-25.174,12.729-38.011
	c-23.65-10.592-33.568-27.962-27.35-51.187c5.648-21.086,25.22-30.092,55.589-25.581c-0.614-30.377,7.771-47.612,28.679-51.647
	c10.086-1.947,22.778-0.04,31.779,4.796c8.752,4.703,14.295,15.38,21.542,23.774c3.78-5.324,8.141-11.465,13.078-18.417
	c-26.834-2.418-42.397-14.936-44.84-34.601c-3.027-24.35,7.346-36.663,40.813-48.449c-14.644-23.438-13.059-44.83,4.37-58.926
	c19.146-15.485,39.545-11.744,62.142,11.399c14.034-24.255,30.763-33.434,51.52-26.278c7.49,2.583,16.658,7.823,19.637,14.333
	c5.602,12.242,7.26,26.287,10.648,39.946c3.911-1.275,10.798-3.522,17.945-5.854c-21.013-23.748-24.583-41.881-12.124-59.776
	c12.142-17.438,30.094-20.47,58.659-9.904c4.23-31.678,15.867-44.333,40.772-44.338c24.975-0.007,36.754,12.8,40.771,44.329
	c28.789-10.499,46.531-7.516,58.679,9.873c12.483,17.867,8.938,36.025-12.104,59.875c7.42,2.302,14.496,4.497,22.281,6.911
	c-4.71-29.495,2.958-48.151,23.458-54.488c8.423-2.604,19.692-3.814,27.035-0.245c10.852,5.275,19.356,15.381,29.047,23.588
	c19.819-20.704,39.849-24.688,59.077-10.125c18.359,13.904,20.298,35.678,5.324,59.813c32.207,10.748,43.358,21.568,40.661,44.207
	c-1.163,9.758-6.509,20.911-13.592,27.545c-7.352,6.886-19.103,9.076-29.468,13.552c3.9,5.28,8.352,11.308,13.362,18.093
	c11.038-25.482,27.239-36.556,47.919-31.679c8.104,1.911,18.243,6.558,21.994,13.093c7.505,6.398,14.348,25.9,13.718,39.359
	c21.831-8.182,39.107,2.279,52.488,22.527c3.726,9.52,5.965,20.469,0,30.817c-3.615,12.233-21.065,24.893-29.288,27.644
	c16.759,18.704,21.135,36.887,8.158,53.089c-6.65,8.304-17.978,15.692-28.244,17.491c-10.67,1.87-22.609-3.501-33.773-5.662
	c0,6.074,0,13.407,0,20.903c30.677-12.657,48.319-10.363,61.169,7.729c12.868,18.117,10.063,35.992-7.13,55.182
	C819.711,516.909,831.002,527.858,836.329,538.46z M579.323,721.884c-16.837,16.883-22.493,30.339-13.817,40.159
	c4.895,5.541,14.883,9.84,22.176,9.297c13.512-1.007,19.493-14.675,19.543-37.173C598.208,730.197,589.382,726.312,579.323,721.884z
	 M778.264,341.431c24.315,0.776,36.475-4.526,40.033-17.732c2.779-10.317-1.437-18.195-10.273-23.429
	c-10.983-6.506-26.95-1.068-39.004,12.204C772.141,322.248,775.074,331.439,778.264,341.431z M103.579,311.915
	c-21.812-15.685-34.294-19.15-42.865-9.279c-4.802,5.532-7.61,15.961-6.118,23.097c2.646,12.658,17.555,17.401,39.291,15.23
	c1.078-4.771,1.833-9.825,3.412-14.604C98.864,321.616,101.261,317.149,103.579,311.915z M663.637,211.291
	c21.917,10.588,35.384,10.908,43.47,0.502c6.024-7.754,6.671-16.235,1.224-24.682c-7.087-10.992-21.323-12.959-41.838-6.003
	C665.579,190.757,664.668,200.387,663.637,211.291z M207.76,211.272c-1.028-10.914-1.937-20.544-2.845-30.192
	c-20.597-6.916-34.786-4.938-41.854,6.051c-5.44,8.455-4.77,16.939,1.253,24.684C172.398,222.205,186.122,221.863,207.76,211.272z
	 M207.948,659.853c-14.426-4.425-28.787-14.127-42.837-0.247c-7.446,7.355-7.717,16.722-1.79,25.58
	c7.379,11.029,20.772,12.634,41.604,5.466C205.881,680.907,206.826,671.27,207.948,659.853z M666.671,692.01
	c14.755,2.44,30.338,8.467,41.732-7.466c6.152-8.603,5.139-18.368-2.597-25.438c-14.356-13.124-28.497-3.603-42.312,0.883
	C664.597,671.089,665.593,681.13,666.671,692.01z M262.394,735.096c4.62,14.529,2.155,33.97,23.021,36.644
	c6.657,0.854,17.68-5.146,21.072-11.178c9.815-17.452-6.365-27.361-13.665-39.232C282.494,726.003,273.314,730.155,262.394,735.096z
	 M214.444,712.435c-11.986,10.956-28.682,19.169-21.605,38.297c2.338,6.32,13.17,13.696,19.823,13.423
	c18.945-0.779,21.485-18.328,27.939-32.228c-5.191-3.187-9.639-5.509-13.61-8.468C222.933,720.436,219.342,716.789,214.444,712.435z
	 M720.262,582.788c-3.909,23.011,0.044,36.943,12.43,41.428c9.538,3.454,18.378,1.662,24.838-6.795
	c7.464-9.77,4.335-25.245-7.591-40.822C739.791,578.715,729.989,580.76,720.262,582.788z M751.32,295.727
	c6.124-13.79,17.671-27.694,4.537-42.13c-4.542-4.992-17.352-7.647-23.581-4.934c-17.912,7.803-13.142,25.151-13.069,40.177
	C729.777,291.106,739.669,293.228,751.32,295.727z M631.125,732.583c6.34,14.072,9.249,31.714,28.535,31.571
	c6.637-0.049,15.876-7.785,19.223-14.393c5.9-11.649-3.159-24.343-22.095-36.081C648.507,719.78,640.428,725.73,631.125,732.583z
	 M608.594,137.15c-3.561-15.024-2.072-33.802-22.379-37.017c-6.533-1.034-17.688,5.024-21.18,11.052
	c-10.071,17.394,6.238,27.397,13.34,39.537C588.665,146.1,597.833,141.982,608.594,137.15z M121.058,576.453
	c-12.448,18.539-14.777,33.148-5.986,42.456c7.166,7.586,16.027,8.982,25.331,4.429c11.498-5.627,14.939-19.88,10.368-40.668
	C140.929,580.61,131.108,578.556,121.058,576.453z M262.825,137.092c10.886,4.92,20.021,9.05,30.516,13.794
	c6.443-12.592,23.349-22.416,12.974-39.843c-3.571-5.999-14.74-11.964-21.265-10.881
	C264.839,103.522,266.352,122.241,262.825,137.092z M768.698,560.084c17.688,14.949,31.78,19.426,41.045,10.007
	c5.148-5.236,8.73-15.565,7.558-22.704c-2.205-13.431-17.44-18.619-39.146-16.25C774.998,540.799,771.879,550.35,768.698,560.084z
	 M103.166,561.215c-3.739-11.159-7.034-20.994-10.54-31.464c-15.123,2.03-31.921-0.923-39.067,17.517
	c-3.929,10.137,0.207,18.747,8.856,23.846C79.342,581.088,90.577,567.559,103.166,561.215z M773.944,508.009
	c12.654-8.513,31.601-12.346,28.001-32.871c-1.165-6.653-10.205-15.688-16.869-16.905c-18.973-3.461-24.431,13.835-33.479,25.03
	C759.222,491.704,765.953,499.159,773.944,508.009z M97.469,508.136c7.849-8.824,14.801-16.64,22.205-24.962
	c-9.127-11.584-14.777-28.256-34.147-25.327c-9.886,1.496-16.674,8.59-16.812,19.264C68.459,496.789,85.716,499.841,97.469,508.136z
	 M751.576,388.806c9.39,11.398,14.805,28.395,34.389,25.355c9.971-1.547,16.264-8.779,16.833-19.583
	c0.673-12.766-10.334-23.262-30.121-29.143C766.077,372.744,759.584,379.936,751.576,388.806z M97.254,363.76
	c-12.258,8.964-30.17,12.209-28.443,32.549c0.903,10.632,8.22,17.443,18.324,18.153c18.422,1.292,23.964-14.468,32.533-25.933
	C112.196,380.273,105.419,372.783,97.254,363.76z M151.804,288.866c2.15-25.714-1.27-38.625-13.39-40.696
	c-7.468-1.275-17.822,1.36-23.607,6.172c-9.393,7.816-5.814,23.706,6.446,41.195C131.302,293.343,141.21,291.179,151.804,288.866z
	 M451.562,81.509c8.006-23.873,6.529-36.7-4.979-43.683c-9.179-5.569-17.864-4.112-25.488,3.001
	c-9.011,8.408-8.723,24.377,0.24,40.682C431.142,81.509,440.832,81.509,451.562,81.509z M420.788,790.576
	c-9.119,20.561-8.086,35.415,3.137,42.928c8.796,5.89,17.519,5.214,25.526-1.567c9.949-8.424,9.945-25.459,0.446-41.36
	C440.032,790.576,430.363,790.576,420.788,790.576z M399.15,93.782c-13.838-17.581-26.594-24.2-38.011-19.053
	c-9.563,4.313-13.914,12.019-12.579,22.612c1.568,12.434,13.44,20.024,35.27,22.793C388.981,111.275,394.056,102.545,399.15,93.782z
	 M488.529,121.784c13.5-6.295,32.831-5.393,33.723-25.801c0.303-6.915-6.068-16.595-12.253-20.759
	c-10.199-6.869-23.709,0.869-37.757,18.532C477.324,102.501,482.396,111.23,488.529,121.784z M240.434,139.313
	c-6.857-13.83-9.171-32.187-29.054-31.357c-6.711,0.28-15.734,8.165-18.965,14.86c-5.572,11.546,3.316,23.692,22.168,35.346
	C222.811,152.163,230.94,146.234,240.434,139.313z M657.348,158.52c20.563-15.235,27.737-25.844,21.396-36.974
	c-3.695-6.484-12.712-12.564-20.123-13.709c-12.185-1.881-21.766,11.536-26.38,32.417
	C640.424,146.207,648.562,152.127,657.348,158.52z M383.657,751.543c-23.509,4.064-33.989,11.235-35.188,23.946
	c-1.012,10.704,3.799,18.018,13.449,22.029c11.47,4.767,25.271-2.811,37.01-19.636C393.96,769.314,389.102,760.933,383.657,751.543z
	 M472.131,778.49c16.157,18.649,27.178,23.947,38.611,18.471c10.251-4.91,13.936-13.354,11.807-24.211
	c-2.271-11.582-16.842-19.725-35.268-20.406C482.314,760.915,477.458,769.298,472.131,778.49z M225.341,674.286
	c-2.393,16.13,2.26,27.106,13.734,34.526c10.607,6.858,21.901,8.412,34.317,0.318c-8.417-5.758-16.059-10.745-23.435-16.097
	C242.166,687.382,234.627,681.383,225.341,674.286z M143.12,310.384c-17.264,3.413-27.696,13.355-29.217,27.93
	c-1.123,10.757,1.594,20.225,11.221,27.24C131.357,346.447,137.053,328.984,143.12,310.384z M746.608,366.867
	c9.812-11.253,13.786-21.667,9.378-34.449c-4.454-12.91-13.349-20.097-27.915-22.723
	C734.296,328.89,740.041,346.608,746.608,366.867z M464.846,752.516c-19.741,0-38.503,0-58.329,0
	c5.372,13.926,15.838,19.422,29.157,19.434C448.996,771.958,459.512,766.517,464.846,752.516z M645.552,675.109
	c-16.284,11.948-31.54,23.144-47.639,34.957C627.555,720.575,649.33,704.418,645.552,675.109z M406.471,119.433
	c19.802,0,38.573,0,58.485,0c-5.421-14.048-16.376-19.641-29.274-19.632C422.766,99.811,411.788,105.406,406.471,119.433z
	 M646.146,197.267c2.368-15.579-2.293-26.555-13.763-34.039c-10.598-6.915-21.86-8.265-34.093-0.718
	C614.355,174.178,629.562,185.222,646.146,197.267z M225.296,197.223c16.632-12.141,31.991-23.353,47.962-35.012
	C245.147,150.755,223.292,166.463,225.296,197.223z M728.344,561.477c15.315-1.571,23.739-9.661,27.804-22.568
	c3.918-12.441,1.049-23.146-9.792-32.678C740.249,524.962,734.569,542.38,728.344,561.477z M143.205,561.793
	c-6.331-19.369-12.106-37.037-18.229-55.771c-10.454,9.683-13.661,20.195-9.96,32.274
	C118.969,551.205,127.25,559.77,143.205,561.793z"/>
</svg>
