<?xml version="1.0" encoding="utf-8"?>
<!-- Generator: Adobe Illustrator 16.0.0, SVG Export Plug-In . SVG Version: 6.00 Build 0)  -->
<!DOCTYPE svg PUBLIC "-//W3C//DTD SVG 1.1//EN" "http://www.w3.org/Graphics/SVG/1.1/DTD/svg11.dtd">
<svg version="1.1" id="Layer_1" xmlns="http://www.w3.org/2000/svg" xmlns:xlink="http://www.w3.org/1999/xlink" x="0px" y="0px"
	 width="864px" height="864px" viewBox="0 0 864 864" enable-background="new 0 0 864 864" xml:space="preserve">
<path d="M840.628,400.349c14.38,13.348,13.133,50.782,1.011,63.529c-12.419,11.794-10.713,4.418-4.687,27.74
	c11.527,44.628-0.037,82.278-33.421,114.142c-5.504,5.251-9.774,15.283-9.257,22.733c1.899,27.408-9.947,43.67-34.961,53.288
	c-6.534,2.512-13.553,9.804-15.804,16.443c-14.812,43.712-44.059,69.672-89.444,78.624c-7.624,1.501-17.156,7.1-20.603,13.574
	c-13.663,25.673-33.814,32.727-61.116,27.546c-6.418-1.218-15.51,0.915-20.567,4.987c-36.534,29.415-75.8,35.133-119.375,17.907
	c-7.11-2.811-18.006-2.933-24.423,0.627c-23.889,13.242-43.516,10.043-63.09-8.625c-5.667-5.405-16.656-8.012-24.908-7.457
	c-45.001,3.01-80.407-12.624-106.979-49.465c-4.549-6.307-13.443-12.69-20.754-13.224c-27.765-2.027-43.546-15.041-49.179-42.541
	c-1.35-6.598-8.26-14.006-14.569-17.32c-40.604-21.326-62.059-54.323-65.893-99.943c-0.693-8.246-4.984-18.58-11.156-23.539
	c-20.526-16.493-25.605-35.322-17.394-60.118c2.504-7.562,0.558-18.629-3.352-25.956c-21.218-39.756-21.549-78.441,0.916-117.86
	c3.807-6.678,5.507-17.489,2.887-24.375c-9.776-25.683-3.118-44.547,17.885-61.18c5.788-4.581,9.639-14.402,10.321-22.179
	c3.969-45.322,23.985-79.139,65.516-99.929c6.761-3.385,13.669-11.761,15.363-19.029c5.935-25.472,19.781-40.019,46.604-40.271
	c11.258-0.109,17.924-5.419,24.287-14.844c25.001-37.041,60.877-52.856,104.964-48.118c11.244,1.21,19.31,0.252,27.005-8.31
	c17.001-18.92,37.042-22.771,59.137-9.144c10.184,6.286,19.244,5.461,30.147,0.916c42.004-17.521,80.378-10.007,115.872,18.004
	c5.533,4.367,15.144,6.507,22.228,5.437c23.803-3.606,44.491-1.393,55.896,23.091c6.046,12.981,16.139,16.847,29.406,19.446
	c42.466,8.32,69.219,34.88,84.033,75.105c2.656,7.219,9.306,15.227,16.148,18.226c23.012,10.095,38.284,24.094,34.238,51.426
	c-1.77,11.95,3.31,19.607,12.036,27.507c29.284,26.503,42.766,61.043,33.425,98.771
	C831.979,394.442,827.145,380.679,840.628,400.349z M213.669,646.645c-47.833,20.246-67.834,18.668-86.342-9.642
	c-7.459-11.407-12.375-26.213-13.255-39.805c-1.566-24.164,18.822-36.034,37.327-49.409c-31.988-6.935-58.93,10.639-65.552,40.131
	c-10.227,45.547,24.792,94.549,71.052,101.21C176.381,691.936,209.478,675.025,213.669,646.645z M214.012,223.48
	c-7.079-27.595-32.513-45.459-57.576-42.074c-43.035,5.815-77.138,49.573-72.117,92.539c4.067,34.792,33.208,56.936,65.593,48.532
	c-9.181-8.113-19.995-14.406-25.888-23.789c-5.943-9.46-9.986-22.158-9.374-33.133c0.628-11.204,6.207-23.182,12.634-32.807
	C145.495,205.482,164.619,203.778,214.012,223.48z M738.47,462.754c46.727,22.708,57.271,35.339,51.006,67.417
	c-9.125,46.722-40.043,58.812-85.813,44.182c18.057,26.799,43.459,35.827,67.149,26.735c45.414-17.426,65.584-81.626,38.348-122.048
	C794.067,456.646,764.229,449.26,738.47,462.754z M133.345,375.34c-23.149-20.302-51.508-20.712-72.117-2.262
	c-35.41,31.691-35.199,92.949,0.426,124.276c20.918,18.397,51.148,17.556,69.174-1.158c-15.293-5.465-32.513-8.618-46.232-17.303
	c-16.237-10.277-19.397-29.146-18.524-47.827C67.58,398.806,79.485,388.816,133.345,375.34z M705.805,292.283
	c16.339,0,32.394-2.199,47.537,0.572c17.893,3.272,27.565,18.068,32.898,34.718c13.856,43.263-4.902,68.291-49.421,78.403
	c28.871,16.623,62.206,6.054,75.934-20.94c18.979-37.325,5.822-86.386-29.317-109.326
	C755.664,257.585,725.945,263.864,705.805,292.283z M363.765,137.175c8.327-26.412-1.471-51.825-23.412-64.12
	c-45.231-25.346-111.829,7.391-119.7,58.841c-3.508,22.926,13.96,50.131,34.415,53.597c-12.194-50.552-7.201-68.255,23.522-83.366
	C311.659,85.862,329.039,92.821,363.765,137.175z M534.431,147.617c25.353-19.015,30.157-49.458,14.078-73.05
	c-26.279-38.563-88.761-46.417-124.036-15.592c-19.641,17.163-22.649,51.73-4.3,72.016c3.881-36.908,19.848-62.418,59.428-60.1
	C525.934,73.606,541.205,102.674,534.431,147.617z M587.094,702.14c-3.471,23.399,14.234,47.865,38.66,53.421
	c47.72,10.853,100.081-30.965,100.197-80.02c0.064-28.044-23.947-53.365-49.009-51.678c25.577,47.634,25.687,64.007,0.573,87.069
	C651.1,735.191,633.895,733.519,587.094,702.14z M363.391,732.417c-29.862,41.812-44.077,49.728-73.141,39.924
	c-45.992-15.521-52.603-47.76-33.068-90.767c-30.518,14.416-42.658,40.896-33.945,67.796c13.99,43.189,69.771,68.504,111.417,50.562
	C360.901,788.627,373.218,761.025,363.391,732.417z M673.336,247.375c31.332-2.61,51.408-23.445,52.389-50.25
	c1.831-50.04-52.698-94.454-101.092-82.331c-24.122,6.04-42.623,33.15-36.539,53.537c37.593-31.004,57.006-35.108,82.983-13.978
	c10.14,8.247,18.992,20.334,23.714,32.502C703.771,209.994,690.146,228.819,673.336,247.375z M417.961,739.604
	c-15.851,25.612-12.5,54.467,6.894,71.507c35.378,31.081,97.46,23.066,123.716-15.978c15.914-23.662,10.991-53.965-10.247-70.079
	c-3.648,16.795-4.365,35.743-12.028,51.257c-8.804,17.826-29.122,21.737-47.993,23.242
	C448.843,801.896,434.901,787.915,417.961,739.604z M200.807,240.913c-18.382-16.942-34.242-17.58-49.811-4.209
	c-17.307,14.873-22.845,39.047-11.247,54.196c3.936,5.139,11.084,7.822,16.763,11.628c2.31-6.633,6.659-13.315,6.514-19.899
	c-0.333-15.167,4.688-24.792,19.699-29.72C189.141,250.805,194.432,245.277,200.807,240.913z M160.143,564.932
	c-20.032,10.105-27.102,20.502-26.479,34.978c0.747,17.377,13.848,35.606,30.176,41.019c13.587,4.504,25.657,2.272,37.151-12.014
	c-11.667-7.637-26.097-12.477-32.402-22.456C161.884,595.851,162.881,580.375,160.143,564.932z M678.533,660.98
	c0.905-6.578-4.617-25.723-20.448-22.409c-4.366,4.293-6.229,10.119-6.722,14.819c-2.135,20.344-12.407,28.155-32.277,27.047
	c-4.193-0.235-10.913,4.42-12.357,8.338c-1.116,3.017,3.262,9.541,6.84,12.547c11.926,10.021,25.546,9.456,38.723,2.827
	C667.851,696.323,676.416,683.258,678.533,660.98z M734.585,387.841c27.961-6.531,37.093-18.829,35.32-41.808
	c-1.551-20.103-15.978-37.356-33.48-38.17c-6.516-0.305-13.201,3.069-19.81,4.767c3.483,6.146,5.54,14.22,10.731,18.054
	c12.729,9.408,14.557,20.214,10.006,34.298C735.264,371.443,735.599,378.686,734.585,387.841z M735.156,483.501
	c0.57,7.686-0.351,15.164,1.895,21.53c5.3,15.041,2.983,26.121-11.216,35.034c-5.15,3.234-7.96,10.2-12.562,16.444
	c16.104,8.85,28.647,8.138,40.532-1.326c14.094-11.221,20.397-30.973,14.719-48.29C763.885,492.747,754.319,484.034,735.156,483.501
	z M439.778,739.243c-0.317,24.592,10.984,37.385,32.369,39.843c20.793,2.393,42.938-10.831,45.761-28.653
	c0.985-6.216-2.14-13.084-3.389-19.653c-6.152,2.547-13.646,3.665-18.197,7.924c-11.755,11-22.949,12.715-36.939,4.191
	C454.193,739.73,446.671,740.397,439.778,739.243z M86.002,435.668c0.2,19.134,11.9,35.883,28.11,38.77
	c4.771,0.849,21.356,0.972,22.054-1.168c1.601-4.914-6.265-14.065-9.429-17.408c-13.915-14.704-13.217-27.637,0.216-42.187
	c2.955-3.199,10.023-14.198,7.931-18.611c-1.126-2.378-16.938-0.106-21.681,0.975C97.016,399.732,85.802,416.723,86.002,435.668z
	 M660.856,232.491c19.215-16.854,21.484-32.372,9.476-50.436c-11.952-17.984-34.741-26.083-50.894-16.882
	c-5.623,3.203-9.329,9.769-13.912,14.795c6.222,3.272,12.229,8.758,18.703,9.375c15.356,1.466,23.48,8.471,26.674,23.526
	C652.327,219.576,657.21,225.55,660.856,232.491z M273.443,177.808c6.127-6.163,12.347-10.06,15.116-15.662
	c7.273-14.708,17.64-19.478,33.575-15.918c6.444,1.442,13.697-0.754,21.298-1.35c-8.902-27.121-28.458-35.859-51.86-26.297
	C266.966,128.637,259.137,149.683,273.443,177.808z M344.417,724.027c-9.185,0-16.491-1.189-23.245,0.242
	c-15.081,3.195-24.835-1.989-32.395-15.153c-3.439-5.987-10.111-10.12-16.181-15.918c-13.376,28.132-5.819,47.676,19.153,58.458
	C314.626,761.538,333.837,753.15,344.417,724.027z M514.723,144.874c7.115-21.589,3.408-34.673-9.26-44.298
	c-14.35-10.898-30.607-13.634-47.162-5.307c-13.145,6.616-20.93,17.089-18.155,39.458
	C467.441,114.754,491.724,122.411,514.723,144.874z M774.072,244.035c0-7.313,2.413-15.651-0.612-20.776
	c-3.744-6.338-11.712-10.499-18.499-14.511c-1.785-1.056-7.729,1.07-8.717,3.171c-4.696,9.99-8.343,20.478-12.88,32.116
	C747.141,244.035,759.368,244.035,774.072,244.035z M93.975,335.476c-9.473-11.084-17.396-20.351-25.201-29.481
	c-23.249,10.617-25.858,19.986-11.426,40.931C68.736,343.368,80.29,339.755,93.975,335.476z M575.319,73.427
	c2.255,14.139,4.237,26.567,6.483,40.657c7.937-5.465,14.587-9.25,20.23-14.188c4.504-3.936,7.783-9.277,11.605-13.995
	C606.5,69.167,597.167,65.167,575.319,73.427z M581.421,756.588c-2.104,14.494-3.854,26.554-5.567,38.367
	c23.721,10.719,32.802,6.384,38.319-17.837C603.929,770.699,593.606,764.229,581.421,756.588z M68.722,564.906
	c8.629-10.624,16.539-20.361,24.992-30.769c-14.104-3.915-25.886-7.188-37.372-10.376C43.726,546.404,45.182,551.431,68.722,564.906
	z M733.061,625.252c4.678,11.979,7.347,21.077,11.815,29.188c1.882,3.412,8.194,7.32,11.4,6.534
	c11.723-2.865,21.132-9.555,17.943-23.684c-1.007-4.465-5.458-10.874-9.151-11.491C755.355,624.179,745.192,625.252,733.061,625.252
	z M202.686,701.926c-15.086,4.392-26.783,7.797-38.239,11.133c1.328,27.244,8.694,32.93,33.333,26.233
	c0.382-5.728,0.512-11.652,1.247-17.499C199.737,716.121,201.068,710.526,202.686,701.926z M821.638,456.514
	c19.681-18.987,19.176-28.854-1.361-42.042c-9.909,6.812-19.821,13.63-30.53,20.993
	C801.205,443.026,810.997,449.491,821.638,456.514z M399.992,50.312c-18.759-16.812-29.896-15.048-41.522,6.261
	c8.318,9.19,16.683,18.437,25.774,28.486C390.032,72.287,395.056,61.2,399.992,50.312z M400.458,820.007
	c-5.823-12.042-11.091-22.937-16.738-34.617c-9.379,10.522-17.547,19.688-25.562,28.682
	C372.174,835.355,380.843,836.626,400.458,820.007z M202.08,167.814c-1.959-14.406-3.581-26.339-5.163-37.98
	c-27.07-3.034-33.614,3.086-31.195,27.868C176.966,160.831,188.176,163.949,202.08,167.814z"/>
</svg>
