<?xml version="1.0" encoding="utf-8"?>
<!-- Generator: Adobe Illustrator 16.0.0, SVG Export Plug-In . SVG Version: 6.00 Build 0)  -->
<!DOCTYPE svg PUBLIC "-//W3C//DTD SVG 1.1//EN" "http://www.w3.org/Graphics/SVG/1.1/DTD/svg11.dtd">
<svg version="1.1" id="Layer_1" xmlns="http://www.w3.org/2000/svg" xmlns:xlink="http://www.w3.org/1999/xlink" x="0px" y="0px"
	 width="864px" height="864px" viewBox="0 0 864 864" enable-background="new 0 0 864 864" xml:space="preserve">
<path d="M837.416,367.554c0,1.805,0,3.607,0,5.412c-10.726,21.358-21.451,42.716-31.247,62.224
	c10.154,20.232,20.701,41.244,31.247,62.256c0,1.806,0,3.607,0,5.412c-16.47,6.327-32.948,12.63-49.39,19.027
	c-1.514,0.59-3.834,1.628-4.015,2.743c-3.367,20.787-18.528,31.604-33.743,40.406c0.999,12.907,6.548,27.148,1.869,35.959
	c-10.147,19.109-3.024,33.007,5.763,48.364c2.348,4.104,2.208,9.611,4.463,13.797c5.473,10.158,0.621,15.434-8.3,18.224
	c-19.296,6.039-38.771,11.507-57.349,16.964c-5.509,18.768-11.155,38.686-17.252,58.466c-2.576,8.364-8.27,12.381-17.139,8.528
	c-11.375-4.944-22.485-10.525-33.984-15.146c-3.975-1.599-9.939-3.11-12.993-1.295c-13.869,8.245-28.601,7.334-42.883,4.142
	c-7.67-1.715-10.816,0.09-13.291,6.213c-5.457,13.496-16.815,19.73-29.182,25.676c-4.952,2.382-8.904,8.454-11.53,13.731
	c-5.48,11.021-9.14,22.973-14.97,33.776c-1.63,3.023-9.409,5.896-12.346,4.519c-15.939-7.463-31.809-15.412-46.55-24.968
	c-8.096-5.251-12.822-5.166-20.882,0.105c-14.335,9.379-30.167,16.445-45.232,24.738c-7.335,4.038-12.113,1.128-14.907-5.394
	c-4.854-11.329-8.658-23.115-13.648-34.376c-1.958-4.416-5.197-10.206-9.112-11.47c-14.951-4.828-25.166-14.037-32.66-27.57
	c-1.618-2.923-7.345-4.862-11.248-4.981c-10.625-0.322-23.468,4.54-31.472,0.14c-15.818-8.691-27.213-2.909-39.81,4.345
	c-3.08,1.773-6.242,3.499-9.549,4.772c-19.712,7.596-24.436,5.861-30.734-14.278c-5.367-17.164-9.085-34.846-12.655-48.853
	c-21.321-6.681-41.063-12.812-60.765-19.066c-7.375-2.344-9.918-7.389-6.921-14.599c5.267-12.666,10.85-25.2,16.122-37.864
	c1.027-2.463,2.628-6.08,1.624-7.779c-10.29-17.413-9.88-35.349-2.865-53.208c-18.03-12.632-18.006-12.647-35.379-42.071
	c-0.754-1.279-2.572-2.148-4.08-2.732c-16.453-6.382-32.943-12.672-49.423-18.985c0-1.805,0-3.606,0-5.412
	c10.739-21.357,21.479-42.713,32.562-64.756c-5.13-7.69-12.435-17.22-18.158-27.618c-5.635-10.243-9.668-21.369-14.404-32.106
	c0-1.805,0-3.607,0-5.412c16.484-6.343,32.978-12.656,49.433-19.07c1.503-0.584,3.799-1.628,3.981-2.746
	c3.4-20.75,18.549-31.522,33.811-40.364c-1.028-12.817-6.535-26.923-1.972-35.924c9.594-18.927,3.631-32.894-5.658-48.218
	c-2.9-4.786-3.634-10.848-5.63-16.226c-2.73-7.354-0.469-12.304,6.901-14.632c20.122-6.356,40.292-12.55,59.91-18.644
	c5.384-18.324,11.215-38.195,17.065-58.06c2.919-9.91,10.193-11.609,18.47-8.327c11.125,4.413,21.783,10.005,32.682,15.002
	c2.722,1.25,6.634,3.924,8.241,2.97c18.247-10.8,37.295-9.035,53.422-4.442c9.964-10.642,16.768-23.945,26.961-27.486
	c18.519-6.432,22.399-20.216,26.798-35.335c0.25-0.859,0.109-1.839,0.416-2.667c8.499-22.917,12.553-24.728,34.71-15.108
	c4.417,1.918,8.685,4.268,12.794,6.789c10.186,6.25,20.355,17.896,30.317,17.677c10.668-0.235,21.105-11.541,31.604-18.082
	c1.517-0.943,2.634-2.759,4.232-3.309c30.639-10.534,29.444-19.616,43.407,15.129c1.979,4.926,4.48,9.897,5.118,15.047
	c1.014,8.195,5.56,11.353,12.594,14.955c9.095,4.656,18.35,11.136,24.312,19.212c6.616,8.961,11.332,15.476,23.766,10.441
	c5.045-2.043,12.619-2.434,17.266-0.074c21.91,11.121,39.712,0.304,58.864-8.06c17.53-7.653,22.413-5.055,27.995,12.865
	c5.491,17.619,9.206,35.792,13.014,50.985c20.596,6.118,40.086,11.715,59.442,17.743c8.106,2.523,11.7,7.613,7.663,16.472
	c-5.502,12.074-10.6,24.336-15.577,36.635c-1.134,2.798-2.553,6.995-1.319,8.999c10.5,17.063,8.794,34.611,2.311,52.621
	c17.096,9.865,32.288,20.624,35.652,41.408c0.184,1.136,2.434,2.236,3.93,2.814C804.396,354.943,820.912,361.235,837.416,367.554z
	 M597.806,601.431c3.483,11.921,5.441,23.657,10.246,34.08c12.399,26.904,35.357,47.155,61.608,48.786
	c12.84,0.798,14.67-5.652,13.044-15.589C676.851,632.896,638.762,601.674,597.806,601.431z M269.155,600.032
	c-6.691,1.239-11.86,1.721-16.737,3.177c-33.083,9.881-58.25,28.16-66.398,63.939c-3.085,13.544,0.12,17.83,13.721,16.792
	c19.714-1.504,34.504-11.657,46.827-26.958C259.744,640.624,267.451,622.69,269.155,600.032z M271.013,269.794
	c-3.93-13.177-5.757-25.14-10.915-35.438c-12.337-24.63-29.62-44.558-59.308-47.859c-14.27-1.585-17.794,3.161-14.674,17.096
	C194.135,239.408,227.021,266.187,271.013,269.794z M600.248,270.457c6.198-1.226,11.464-1.792,16.43-3.327
	c32.425-10.034,57.183-28.163,65.46-63.231c3.365-14.26,0.237-18.118-14.182-17.462
	C633.082,188.024,599.882,231.485,600.248,270.457z M434.337,670.381c-25.225,27.042-34.923,75.529-9.873,107.485
	c7.147,9.117,13.018,8.913,20.096-1.047C466.508,745.939,462.718,704.167,434.337,670.381z M434.289,200.944
	c3.574-4.744,6.407-8.089,8.788-11.731c20.124-30.771,20.711-68.488,1.582-95.466c-7.45-10.507-13.265-10.383-20.882-0.204
	c-12.221,16.334-16.166,34.983-13.429,54.492C413.051,167.316,419.913,185.384,434.289,200.944z M85.608,434.337
	c20.785,39.297,94.431,27.314,112.822,0.003C173.36,408.296,111.026,398.175,85.608,434.337z M669.485,434.736
	c21.377,26.36,90.077,38.815,113.354,0.27C759.704,398.825,696.459,407.4,669.485,434.736z M271.201,649.503
	c-7.649,8.304-13.717,16.197-21.109,22.545c-7,6.013-10.135,13.124-7.569,21.234c3.952,12.486,7.629,25.755,14.854,36.35
	c10.506,15.409,13.861,14.551,26.262,0.682c17.029-19.046,20.507-44.362,7.729-59.785C285.71,663.7,279.094,657.669,271.201,649.503
	z M596.631,220.994c10.497-12.59,25.341-22.833,28.417-35.858c4.56-19.315-4.975-38.332-21.14-51.664
	c-2.491-2.056-9.517-2.13-12.02-0.111c-28.051,22.619-29.328,52.401-3.968,77.613C590.14,213.18,592.049,215.695,596.631,220.994z
	 M594.877,652.746c-6.036,5.97-12.036,10.438-16.06,16.268c-4.641,6.724-12.103,16.086-10.312,21.778
	c4.92,15.647,13.606,30.217,21.683,44.723c3.894,6.992,9.893,6.942,15.233,0.505C635.445,699.814,634.912,676.9,594.877,652.746z
	 M271.353,220.302c7.595-7.648,13.018-11.95,16.936-17.347c4.869-6.707,12.485-14.664,11.896-21.472
	c-1.673-19.299-9.956-36.812-25.278-49.759c-1.761-1.488-7.184-1.089-9.192,0.547c-16.743,13.626-26.918,32.772-22.311,52.835
	C246.386,198.095,261.345,208.336,271.353,220.302z M395.05,167.176c1.157-13.483,2.313-25.396,3.077-37.336
	c0.127-1.995-0.867-4.744-2.323-6.054c-14.103-12.701-29.703-23.211-49.33-23.324c-4.918-0.026-13.464,5.64-14.235,9.815
	c-5.616,30.438,17.57,56.944,48.394,56.899C385.11,167.171,389.588,167.176,395.05,167.176z M395.126,704.04
	c-23.531-2.479-45.923-4.315-55.876,22.782c-2.882,7.847-5.177,15.962-7.055,24.115c-3.151,13.676,3,20.885,17.098,19.347
	c17.85-1.948,32.475-11.239,45.788-22.627c1.775-1.52,3.044-4.796,2.918-7.172C397.356,728.538,396.174,716.619,395.126,704.04z
	 M473.348,167.123c10.024,0,19.24,1.231,27.926-0.391c6.914-1.29,16.356-4.389,19.113-9.619
	c7.095-13.464,11.597-28.403,16.157-43.057c2.614-8.406-3.566-12.204-10.755-13.826c-12.9-2.915-47.266,13.073-53.686,24.807
	c-0.831,1.52-1.908,3.295-1.799,4.878C471.127,141.849,472.218,153.762,473.348,167.123z M473.279,703.38
	c-1.098,13.506-2.395,25.837-2.851,38.199c-0.088,2.397,2.566,5.767,4.879,7.23c10.429,6.604,20.578,14.297,31.959,18.615
	c22.956,8.707,31.128,1.273,27.104-22.587c-0.224-1.324,0.012-2.728-0.228-4.046c-3.261-17.946-16.594-36.144-28.538-37.212
	C494.983,702.632,484.212,703.38,473.279,703.38z M649.854,271.681c31.71,43.44,57.916,30.969,89.92,1.578
	c-8.24-20.188-26.411-25.732-45.186-29.838C670.537,238.158,665.528,262.371,649.854,271.681z M128.626,597.342
	c8.93,20.531,27.461,26.366,47.075,29.736c23.388,4.019,27.674-19.67,42.362-28.409
	C188.944,558.506,164.273,563.844,128.626,597.342z M647.08,598.314c9.16,7.965,17.796,13.098,22.988,20.607
	c6.048,8.748,13.759,9.984,21.796,7.957c11.869-2.991,24.275-6.353,34.528-12.679c16.434-10.138,15.755-18.346-0.386-29.075
	c-6.589-4.381-13.597-8.303-20.822-11.514c-13.943-6.197-26.849-4.374-38.137,6.484C661.535,585.4,655.752,590.424,647.08,598.314z
	 M219.234,274.175c-10.012-10.917-18.09-19.897-26.423-28.633c-1.308-1.372-3.734-2.23-5.699-2.339
	c-17.57-0.983-33.721,3.655-47.345,14.68c-14.128,11.435-13.473,16.218,1.688,26.702c3.292,2.275,6.37,4.963,9.901,6.768
	c21.172,10.822,36.135,15.423,55.784-6.802C210.386,280.88,214.623,278.084,219.234,274.175z M702.157,474.114
	c0,10.059-0.579,19.78,0.225,29.39c0.458,5.478,1.517,12.751,5.161,15.792c14.285,11.924,31.323,18.417,50.117,18.103
	c3.142-0.053,8.418-5.013,8.931-8.295c3.479-22.302-7.748-39.292-21.775-54.892c-1.319-1.467-3.786-2.838-5.637-2.74
	C726.346,472.164,713.535,473.258,702.157,474.114z M166.277,474.057c-11.797-0.852-24.159-1.93-36.544-2.466
	c-2.225-0.095-5.196,1.479-6.723,3.237c-13.048,15.023-23.575,30.975-21.819,52.468c0.677,8.295,4.029,12.071,11.598,10.359
	c11.932-2.698,23.811-5.96,35.339-10.037c13.791-4.879,20.03-14.915,18.299-29.976C165.566,490.169,166.277,482.516,166.277,474.057
	z M166.25,396.444c0-10.447,0.629-20.343-0.247-30.108c-0.486-5.434-1.901-12.579-5.622-15.61
	c-14.051-11.443-30.675-17.899-49.008-17.727c-3.327,0.032-9.049,4.611-9.521,7.719c-3.45,22.782,7.484,40.372,22.396,56.062
	c1.271,1.337,3.922,2.032,5.88,1.937C142.134,398.135,154.126,397.242,166.25,396.444z M702.17,396.277
	c11.324,0.856,24.109,2.016,36.92,2.605c2.187,0.103,5.083-1.712,6.639-3.515c12.998-15.074,23.374-31.154,21.449-52.555
	c-0.661-7.339-3.491-11.937-10.571-9.96c-14.665,4.094-29.718,8.037-43.085,14.981c-5.743,2.983-9.366,12.941-10.915,20.364
	C700.759,377.055,702.17,386.589,702.17,396.277z M430.112,202.294c-16.778-7.083-30.657-12.978-44.567-18.802
	c-11.974-5.014-21.788,0.082-30.188,7.748c-11.488,10.486-9.229,21.855,4.037,30.417
	C378.012,233.671,403.448,224.866,430.112,202.294z M426.624,669.653c-0.181-1.963-0.362-3.927-0.543-5.888
	c-16.3-11.86-33.233-24.265-54.874-19.336c-8.566,1.95-17.509,10.227-22.102,18.07c-2.092,3.573,4.286,15.758,9.832,19.229
	c6.963,4.357,17.732,6.664,25.574,4.709C399.042,682.816,412.639,675.457,426.624,669.653z M442.141,665.877
	c4.997,4.012,8.771,7.955,13.319,10.539c24.121,13.7,42.331,17.28,57.333,3.177c11.442-10.761,9.669-22.085-3.356-30.724
	C491.398,636.911,463.115,645.164,442.141,665.877z M440.341,201.428c13.45,17.888,42.867,29.125,59.125,24.958
	c12.925-3.317,23.222-16.152,20.361-25.383c-3.407-10.991-21.019-22.806-31.929-19.199
	C471.975,187.07,456.775,194.52,440.341,201.428z M591.846,268.015c-2.453-24.183-7.641-44.344-26.946-57.37
	c-11.749-7.928-30.009-3.615-32.41,7.114c-2.285,10.217-1.416,20.087,6.563,28.731C552.763,261.34,570.51,265.079,591.846,268.015z
	 M661.37,442.096c-6.275,11.482-14.022,21.992-17.788,33.779c-2.747,8.596-2.844,20.005,0.68,28.06
	c3.207,7.333,12.314,15.143,19.904,16.448c5.229,0.898,14.398-7.723,18.15-14.205C691.926,489.571,682.818,462.812,661.37,442.096z
	 M205.893,441.065c-14.37,17.438-24.707,33.501-23.249,54.581c0.84,12.146,11.572,25.291,21.09,25.896
	c9.059,0.573,19.163-9.435,22.02-21.75C231.055,476.937,217.408,460.724,205.893,441.065z M595.802,591.066
	c25.44,2.891,41.798-5.881,57.005-16.811c8.628-6.202,11.51-26.791,6.222-34.362c-5.57-7.976-18.321-9.797-30.325-3.967
	c-2.713,1.315-5.745,3.327-7.113,5.846C613.123,557.361,605.088,573.186,595.802,591.066z M277.123,267.983
	c21.297-3.044,39.838-6.641,53.106-22.661c7.479-9.027,8.87-27.135,2.596-33.503c-6.108-6.2-22.349-6.424-31.663,0.756
	C283.794,225.965,278.197,244.831,277.123,267.983z M590.757,604.327c-19.827-1.995-44.751,8.815-54.811,23.253
	c-8.05,11.554-5.662,30.908,4.869,33.845c10.511,2.933,22.277,3.318,30.077-5.5C583.703,641.443,591.913,624.53,590.757,604.327z
	 M277.788,602.557c-1.493,21.606,7.068,37.631,18.216,52.182c6.487,8.47,29.78,10.838,35.914,5.22
	c7.856-7.199,5.97-26.396-3.482-36.771C315.141,608.59,297.433,605.32,277.788,602.557z M272.767,279.746
	c-29.552-2.777-56.404,10.147-63.708,27.505c-5.926,14.085-0.832,29.791,10.922,29.831c8.583,0.026,20.744-2.011,25.071-7.796
	C255.805,314.912,262.99,297.867,272.767,279.746z M599.737,278.99c5.257,19.265,7.84,38.853,24.272,52.264
	c12.344,10.074,33.293,8.404,36.671-3.724c3.131-11.242,1.371-23.575-7.671-30.875C638.109,284.627,621.021,275.991,599.737,278.99z
	 M208.682,428.185c6.426-15.664,14.335-30.914,18.8-47.116c3.475-12.611-9.737-31.088-20.992-31.834
	c-12.783-0.845-18.343,9.033-22.766,19.022c-1.204,2.719-1.021,6.142-1.114,9.252C182.029,397.073,191.806,412.218,208.682,428.185z
	 M662.346,428.412c15.612-15.661,23.97-32.941,23.374-53.895c-0.344-12.088-12.052-26.348-21.31-25.378
	c-12.491,1.311-19.229,9.667-21.817,21.802C637.73,393.735,650.8,409.985,662.346,428.412z M272.62,591.063
	c-9.851-18.351-16.993-35.877-27.891-50.629c-8.932-12.09-29.459-10.346-35.976,0.172c-4.226,6.821-1.867,26.377,5.669,32.378
	C229.898,585.311,247.12,593.983,272.62,591.063z M186.07,168.418c13.121,3.095,23.739,5.946,34.524,7.859
	c2.222,0.394,6.376-2.085,7.426-4.294c16.526-34.767,16.443-34.807-18.15-51.577c-1.16-0.561-2.376-1.01-6.28-2.659
	C197.786,134.534,192.132,150.887,186.07,168.418z M682.416,701.646c-13.194-2.809-23.06-5.398-33.093-6.738
	c-2.861-0.381-7.999,2.09-9.062,4.559c-14.842,34.458-14.718,34.519,19.044,50.975c1.088,0.528,2.398,0.6,6.065,1.464
	C670.872,735.687,676.333,719.582,682.416,701.646z M682.281,168.186c-6.017-17.341-11.69-33.691-17.822-51.357
	c-11.711,6.456-21.001,10.824-29.328,16.585c-2.885,1.993-5.374,7.923-4.581,11.224c2.159,8.982,5.707,17.743,9.722,26.104
	c1.226,2.553,6.033,5.314,8.718,4.896C659.396,174.013,669.608,171.146,682.281,168.186z M185.923,702
	c6.279,17.827,12.013,34.104,18.215,51.717c12.149-6.932,21.542-11.902,30.442-17.635c2.279-1.466,4.831-5.94,4.149-8.01
	c-3.956-12.029-8.838-23.755-13.322-35.355C212.417,695.769,200.874,698.485,185.923,702z M360.273,783.648
	c4.587,13.932,8.636,26.23,13.242,40.219c17.173-8.745,32.331-16.462,48.113-24.498c-8.173-12.674-15.05-23.34-21.863-33.905
	C386.345,771.643,373.941,777.355,360.273,783.648z M373.142,46.726c-4.52,14.469-8.506,27.225-12.58,40.264
	c13.83,6.292,26.276,11.956,39.326,17.894c6.925-10.84,13.772-21.556,21.693-33.958C405.513,62.899,390.234,55.264,373.142,46.726z
	 M468.597,765.358c-7.07,11.123-13.918,21.895-21.163,33.292c7.557,4.429,14.219,8.826,21.311,12.362
	c8.268,4.123,16.912,7.489,26.801,11.8c4.231-13.428,8.167-25.92,12.357-39.218C494.792,777.512,482.422,771.774,468.597,765.358z
	 M797.76,448.911c-35.711,17.455-35.713,17.455-21.446,50.237c0.355,0.816,0.751,1.821,1.436,2.26
	c3.243,2.069,8.139,6.472,9.654,5.533c9.757-6.038,24.811-0.592,30.785-14.085c0.606-1.369,0.006-3.671-0.749-5.183
	C811.146,475.042,804.684,462.492,797.76,448.911z M495.254,46.623c-17.236,8.681-32.477,16.358-48.357,24.36
	c7.972,12.544,14.78,23.258,21.649,34.069c13.396-6.345,26.041-12.336,39.301-18.615C503.726,73.406,499.883,61.255,495.254,46.623z
	 M116.759,665.965c15.376,5.47,28.867,10.544,42.551,15.026c7,2.293,10.54-1.694,12.119-8.33
	c6.777-28.491,6.826-28.48-21.148-38.147c-4.064-1.402-8.137-2.79-13.351-4.579C130.582,641.274,124.37,652.371,116.759,665.965z
	 M731.459,629.783c-11.967,4.131-22.239,7.067-31.911,11.358c-3.198,1.419-7.594,8.037-6.766,9.368
	c5.987,9.636-2.325,25.19,12.677,30.751c0.781,0.288,1.859,0.189,2.676-0.09c14.084-4.831,28.148-9.715,43.467-15.021
	C744.135,652.669,737.974,641.544,731.459,629.783z M136.958,240.542c11.799-3.993,23.19-6.377,33.135-11.546
	c16.024-8.333-1.543-19.757,0.892-29.968c0.587-2.46-5.734-6.586-8.931-9.895c-0.207-0.211-0.899-0.092-1.306,0.045
	c-14.403,4.91-28.797,9.842-44.096,15.079C124.305,217.931,130.523,229.044,136.958,240.542z M751.631,204.282
	c-15.606-5.536-28.77-10.594-42.229-14.672c-2.811-0.851-9.035,1.121-9.723,3.142c-3.397,9.981-5.823,20.354-7.605,30.755
	c-0.266,1.551,4.409,4.775,7.312,5.891c10.224,3.924,20.671,7.267,32.127,11.205C737.931,229.017,744.088,217.899,751.631,204.282z
	 M84.595,362.248c-10.104,3.021-18.466,5.975-27.052,7.952c-8.085,1.86-9.099,6.736-6.239,12.965
	c4.975,10.838,10.444,21.456,15.959,32.037c2.736,5.249,6.531,5.782,11.856,2.659c26.319-15.452,26.374-15.333,13.75-43.147
	c-1.094-2.407-1.488-5.232-2.954-7.344C88.338,365.099,85.879,363.439,84.595,362.248z M104.482,471.345
	c-1.316-1.768-2.33-3.776-3.9-5.146c-22.653-19.745-28.599-18.85-42.992,6.312c-12.163,21.266-11.018,24.006,12.669,30.869
	c3.395,0.982,6.597,2.722,10.029,3.451c2.358,0.502,6.613,0.724,7.199-0.399C93.403,495.084,98.736,483.436,104.482,471.345z
	 M794.534,420.711c1.224-0.637,2.785-0.907,3.212-1.752c6.95-13.726,18.646-27.341,19.176-41.361
	c0.497-13.16-19.619-8.147-29.384-14.093c-1.658-1.009-7.624,1.731-9.001,4.194c-4.524,8.092-8.006,16.789-11.553,25.391
	c-1.09,2.648-2.443,7.576-1.397,8.34C774.854,408.198,784.631,414.261,794.534,420.711z"/>
</svg>
