<?xml version="1.0" encoding="UTF-8" standalone="no"?>
<!DOCTYPE svg PUBLIC "-//W3C//DTD SVG 1.1//EN" "http://www.w3.org/Graphics/SVG/1.1/DTD/svg11.dtd">
<svg version="1.1" xmlns="http://www.w3.org/2000/svg" xmlns:xlink="http://www.w3.org/1999/xlink" preserveAspectRatio="xMidYMid meet" viewBox="199.5 217.1312696359674 463 55.87127712308214" width="459" height="51.87"><defs><path d="M218.8 266.6C228 266.2 238.7 265.5 242.5 264.9C250.1 263.9 258.3 260.3 258.8 257.9C258.82 257.8 258.92 257.3 259.1 256.4L256.6 255.2L254.1 254.1L227.3 254.6L200.5 255.1L203.4 253.4L206.3 251.8C219.26 251.02 226.46 250.59 227.9 250.5C254.5 248.8 261.6 247.4 259.6 244.2C258.5 242.4 235.6 239.2 211.5 237.4C207.1 237.1 202.8 236.6 202 236.4C201.91 236.37 201.44 236.2 200.6 235.9C201.44 235.36 201.91 235.06 202 235C204.1 233.7 223.9 233.8 240.6 235.2C241.54 235.27 246.24 235.64 254.7 236.3L257.9 235.1L261 233.8L261 230.9L261 228.1C259.86 227.5 259.23 227.17 259.1 227.1C256 225.4 248.1 223.9 237 223C222.1 221.8 205.9 219.9 203 219.2C202.83 219.15 202 218.92 200.5 218.5C207.4 218.32 211.23 218.22 212 218.2C235.2 217.6 263.3 221 272.2 225.6C272.41 225.71 273.44 226.24 275.3 227.2L274.1 228L272.8 228.7L274.5 229.3L276.1 230C275.74 229.4 275.54 229.07 275.5 229C274.6 227.5 276.6 227.8 277.9 229.3C278.5 230.1 278.6 231 278.2 231.4C277.8 231.8 278 232.1 278.5 232C280.7 231.5 282 232.1 282 233.5C282 234.3 284 236.1 286.5 237.6C289 239 291.4 240.9 291.9 241.7C291.95 241.81 292.22 242.34 292.7 243.3L300.1 244L307.5 244.7C307.68 244.16 307.78 243.86 307.8 243.8C308 243.4 314.3 243 321.8 243C322.71 243 327.28 243 335.5 243L334 244L332.5 245L336.8 245L341 245L341 244L341 243C347.18 243 350.61 243 351.3 243C370 243 417.5 245.2 418.4 246.1C419.7 247.3 421.3 247.2 420.5 246C420.46 245.93 420.26 245.6 419.9 245L439 245L458.1 245L457.4 246.1L456.7 247.2C459.04 246.9 460.34 246.73 460.6 246.7C462.8 246.4 466.8 245.8 469.5 245.3C475.5 244.3 550.3 244.4 557.8 245.5C558.16 245.55 559.96 245.78 563.2 246.2C563.86 245.54 564.23 245.17 564.3 245.1C565.7 243.7 572.7 243.6 573.5 245C573.8 245.5 574.6 245.7 575.3 245.5C576 245.3 579.9 244.9 584 244.6C588.1 244.3 594.4 243.6 598 243C601.6 242.5 605 242 605.5 241.9C606.1 241.9 605.6 241.5 604.5 241.1C604.37 241.05 603.7 240.78 602.5 240.3C606.46 239.58 608.66 239.18 609.1 239.1C618 237.6 621.1 237.9 613 239.6C612.57 239.69 610.4 240.12 606.5 240.9C611.3 240.48 613.97 240.25 614.5 240.2C618.9 239.8 627.4 239.6 633.4 239.7C634.13 239.71 637.76 239.74 644.3 239.8L648.7 241.5L653.2 243.2C654.34 245.72 654.97 247.12 655.1 247.4C656.1 249.6 657 252.8 657 254.4C657 256 657.3 257 657.7 256.7C658.8 255.5 658.1 249.1 656.5 246C656.4 245.8 655.9 244.8 655 243L650.7 240.8L646.5 238.6L634 237.9L621.5 237.2L635.5 237.4L649.5 237.6C650.82 238.32 651.55 238.72 651.7 238.8C652.9 239.5 655.2 241.7 656.7 243.7C656.89 243.94 657.82 245.14 659.5 247.3L659.5 252.9L659.5 258.5C658.12 260.48 657.35 261.58 657.2 261.8C655.9 263.6 653.1 265.9 651.1 267C650.85 267.13 649.58 267.76 647.3 268.9C641.96 269.2 638.99 269.37 638.4 269.4C633.5 269.7 630.4 269.7 631.5 269.4C632.6 269.1 634.6 268.6 636 268.3C636.17 268.25 637 268.02 638.5 267.6C632.8 267.18 629.63 266.95 629 266.9C623.8 266.6 614.6 266 608.5 265.7C607.77 265.66 604.1 265.46 597.5 265.1L601.5 265.9L605.5 266.7C604 266.82 603.17 266.89 603 266.9C600.4 267 588.9 265.3 585.7 264.4C584.8 264.1 584.2 263.5 584.5 263.1C584.7 262.6 583.3 262 581.2 261.6C580.95 261.56 579.72 261.36 577.5 261C577.32 261.6 577.22 261.93 577.2 262C577 262.6 575.9 263 574.7 262.9C574.55 262.9 573.82 262.9 572.5 262.9L574.5 262.1L576.4 261.3C574.42 260.94 573.32 260.74 573.1 260.7C571.2 260.3 568.4 260 566.8 260C566.61 260 565.64 260 563.9 260L564.6 261.2L565.3 262.3C564.28 261.94 563.71 261.74 563.6 261.7C562.6 261.3 560.2 261 558.2 261C557.95 261 556.72 261 554.5 261L555.9 260.1L557.3 259.2C555.98 258.78 555.25 258.55 555.1 258.5C553.9 258.2 548.6 257.9 543.2 258C532.5 258.1 527.4 257.7 524.7 256.5C523.6 256.1 517.6 256 511.2 256.4C510.42 256.44 506.52 256.64 499.5 257C491.7 256.34 487.37 255.97 486.5 255.9C479.4 255.3 472.5 254.8 471.3 254.9C470 254.9 469 254.6 469 254.2C469 253.8 461.5 253.4 452.3 253.3C443 253.2 431.5 252.9 426.5 252.6C425.9 252.57 422.9 252.4 417.5 252.1L420 253L422.5 253.9C419.5 253.6 417.83 253.43 417.5 253.4C414.8 253.1 411.4 252.7 410 252.4C406.1 251.5 307.5 250.7 292.6 251.3C292.07 251.33 289.4 251.46 284.6 251.7C284.36 252.36 284.23 252.73 284.2 252.8C284 253.5 283.2 254 282.4 254C280.1 254 273 257.9 272.4 259.5C272.1 260.3 270.8 261.2 269.7 261.6C268.5 261.9 266.8 262.8 266 263.5C261.1 267.5 216.8 271.7 204.3 269.3C198.4 268.2 203.4 267.2 218.8 266.6ZM649.6 265C649.3 265 648.8 265.5 648.5 266C648.2 266.6 648.1 267 648.4 267C648.7 267 649.2 266.6 649.5 266C649.8 265.5 649.9 265 649.6 265ZM624.1 258.7C626.92 259.12 628.49 259.35 628.8 259.4C643.8 261.6 648.3 261.4 649.4 258.3C649.45 258.19 649.68 257.66 650.1 256.7C649.32 256.22 648.89 255.95 648.8 255.9C648.2 255.5 642.9 255.3 637.1 255.6C636.39 255.63 632.86 255.76 626.5 256L629 254.9L631.5 253.7L638.4 253.9L645.2 254.1C646.64 253.14 647.44 252.61 647.6 252.5C648.9 251.7 650 250.1 650 249C650 248.87 650 248.24 650 247.1L648.1 246.5L646.2 245.9C643.02 247.16 641.25 247.86 640.9 248C635.2 250.1 631.5 250.6 630.6 249.1C630.3 248.7 632.4 248 635.2 247.7C638.1 247.3 641.1 246.4 641.9 245.5C642 245.4 642.5 244.9 643.4 244C642.74 243.34 642.37 242.97 642.3 242.9C640.9 241.5 637.4 242.2 637.7 243.8C637.72 243.87 637.82 244.24 638 244.9C635.9 245.32 634.73 245.55 634.5 245.6C630.9 246.2 628 245.9 619.2 243.9C618.85 243.82 617.08 243.42 613.9 242.7C612.46 243.36 611.66 243.73 611.5 243.8C608.5 245.2 608.3 247.5 611 249C611.14 249.07 611.84 249.44 613.1 250.1L619.9 249.4L626.8 248.8L628.9 250.2L631.1 251.7C629.42 252.36 628.49 252.73 628.3 252.8C626.8 253.4 624.3 254.2 622.9 254.5C622.73 254.54 621.86 254.74 620.3 255.1C616.52 254.14 614.42 253.61 614 253.5C607.8 251.9 603 252.1 603 254C603 255.8 607 257 613.7 257.1C614.15 257.11 616.42 257.14 620.5 257.2C617.92 257.74 616.49 258.04 616.2 258.1C611.1 259.1 610 259.7 610 261.5C610 263.8 613.2 265 619 264.7C619.37 264.69 621.2 264.62 624.5 264.5L624.3 261.6L624.1 258.7ZM652.2 263.4C652.09 263.52 651.52 264.12 650.5 265.2C651.88 264.48 652.65 264.08 652.8 264C654.1 263.4 654.9 262.6 654.6 262.2C654.2 261.9 653.2 262.4 652.2 263.4ZM273.8 247.8C271.7 248 270 248.7 270 249.2C270 249.27 270 249.64 270 250.3C272.16 249.94 273.36 249.74 273.6 249.7C275.6 249.4 277.5 248.8 277.8 248.5C278.8 247.5 277.5 247.3 273.8 247.8ZM429.5 246.2C429.23 246.2 427.9 246.2 425.5 246.2C427 246.68 427.83 246.95 428 247C429.4 247.4 432.1 247.8 434 247.8C434.23 247.81 435.4 247.84 437.5 247.9L435.5 247C432.97 246.47 430.97 246.2 429.5 246.2ZM442.5 246.1C442.23 246.1 440.9 246.1 438.5 246.1C439.7 246.64 440.37 246.94 440.5 247C441.6 247.5 444.1 247.9 446 247.9C446.23 247.91 447.4 247.94 449.5 248L448 247C445.8 246.4 443.97 246.1 442.5 246.1ZM367.1 244L362.5 244L357.9 244C358.26 244.6 358.46 244.93 358.5 245C358.8 245.6 360.6 246 362.5 246C364.4 246 366.2 245.6 366.5 245C366.58 244.87 366.78 244.53 367.1 244ZM383.3 245.3C383 245.7 383.3 246 384 246C384.7 246 385 245.7 384.7 245.3C384.3 245 383.7 245 383.3 245.3ZM386.8 245.3C386.1 245.6 386.6 245.8 388 245.8C389.4 245.8 389.9 245.6 389.3 245.3C388.6 245.1 387.4 245.1 386.8 245.3ZM311.3 244.3C311 244.7 311.3 245 312 245C312.7 245 313 244.7 312.7 244.3C312.3 244 311.7 244 311.3 244.3ZM273 243C273 243.6 274 244 275.3 244C275.45 244 276.18 244 277.5 244L276 243C274 242.13 273 242.13 273 243Z" id="c165L2DTp"></path></defs><g><g><use xlink:href="#c165L2DTp" opacity="1" fill="#aad5d9" fill-opacity="1"></use><g><use xlink:href="#c165L2DTp" opacity="1" fill-opacity="0" stroke="#000000" stroke-width="1" stroke-opacity="1"></use></g></g></g></svg>