<?xml version="1.0" encoding="UTF-8" standalone="no"?>
<!DOCTYPE svg PUBLIC "-//W3C//DTD SVG 1.1//EN" "http://www.w3.org/Graphics/SVG/1.1/DTD/svg11.dtd">
<svg version="1.1" xmlns="http://www.w3.org/2000/svg" xmlns:xlink="http://www.w3.org/1999/xlink" preserveAspectRatio="xMidYMid meet" viewBox="0 0 640 640" width="640" height="640"><defs><path d="M61.68 388.58C49.05 388.58 38.82 398.81 38.82 411.44C38.82 449.32 69.52 480.02 107.4 480.02C149.92 480.02 490.08 480.02 532.6 480.02C570.48 480.02 601.18 449.32 601.18 411.44C601.18 398.81 590.95 388.58 578.32 388.58C474.99 388.58 113.34 388.58 61.68 388.58Z" id="b6aw4puIDk"></path><path d="M274.28 434.3L320 388.58C347.43 416.01 362.67 431.25 365.72 434.3C369.75 430.27 476.01 324.01 480.02 320C460.66 320 178.56 320 159.98 320C175.22 335.24 213.32 373.34 274.28 434.3Z" id="aPxIS60DH"></path><path d="M578.32 320L578.32 388.58L411.44 388.58L480.02 320C537.38 320 569.24 320 575.61 320C576.52 320 577.42 319.94 578.3 319.84C578.3 319.86 578.31 319.91 578.32 320Z" id="fOTZMPGbf"></path><path d="M159.98 320L228.56 388.58L61.68 388.58L61.68 320C61.69 319.9 61.7 319.85 61.7 319.84C62.58 319.94 63.48 320 64.39 320C77.13 320 109 320 159.98 320Z" id="bjsHMrCeJ"></path><path d="M332.98 160.17C229.62 156.95 65.48 191.79 41.84 293.14C38.82 306.1 48.75 318.33 61.7 319.84C62.58 319.94 63.48 320 64.39 320C115.51 320 524.49 320 575.61 320C576.52 320 577.42 319.94 578.3 319.84C591.25 318.33 601.18 306.1 598.16 293.14C576.01 198.12 431.76 162.83 332.98 160.17Z" id="djTaSfFnQ"></path><path d="M589.75 328.41C603.91 322.11 613.07 306.73 609.29 290.54C584.9 185.95 427.57 148.55 320 148.55C267.26 148.55 207.4 157.39 156.87 175.48C150.92 177.61 147.83 184.15 149.96 190.09C152.09 196.04 158.63 199.13 164.57 197C166.52 196.3 168.51 195.62 170.51 194.95C172.01 199.07 184.01 232.03 185.51 236.15C191.98 253.94 211.72 263.09 229.45 256.65C247.21 250.19 256.41 230.47 249.95 212.69C248.71 209.27 238.73 181.85 237.48 178.42C250.42 176.24 263.63 174.54 276.94 173.36C279.23 179.64 297.52 229.87 299.81 236.15C306.28 253.95 326.02 263.09 343.75 256.65C361.51 250.19 370.71 230.47 364.26 212.69C362.79 208.66 351.04 176.38 349.57 172.35C363.87 173.22 378.24 174.73 392.52 176.85C394.68 182.78 411.95 230.22 414.11 236.15C420.59 253.95 440.32 263.09 458.06 256.65C475.81 250.19 485.01 230.47 478.56 212.69C477.95 211.02 473.09 197.67 472.48 196C516.83 211.55 574.43 241.73 587.02 295.74C588.58 302.4 582.43 308.57 575.62 308.57C524.49 308.57 115.51 308.57 64.39 308.57C57.55 308.57 51.42 302.39 52.98 295.74C57.86 274.79 69.91 255.74 88.78 239.09C93.51 234.92 93.96 227.69 89.79 222.96C85.61 218.23 78.39 217.77 73.65 221.95C51.15 241.8 36.7 264.88 30.72 290.54C26.94 306.69 36.06 322.1 50.25 328.41C50.25 333.48 50.25 374.04 50.25 379.12C36.94 383.83 27.39 396.54 27.39 411.44C27.39 455.56 63.28 491.45 107.4 491.45C149.92 491.45 490.08 491.45 532.6 491.45C576.72 491.45 612.61 455.56 612.61 411.44C612.61 396.54 603.06 383.83 589.75 379.12C589.75 368.97 589.75 333.48 589.75 328.41ZM206.99 228.33C205.53 224.32 193.86 192.28 192.4 188.27C199.68 186.28 207.14 184.45 214.74 182.8C216.12 186.57 227.1 216.73 228.47 220.5C230.62 226.43 227.55 233.01 221.64 235.17C215.71 237.32 209.14 234.25 206.99 228.33ZM321.29 228.33C319.23 222.68 302.77 177.48 300.71 171.83C307.23 171.56 313.68 171.41 320 171.41C321.68 171.41 323.3 171.42 324.91 171.44C326.7 176.35 340.99 215.6 342.77 220.5C344.92 226.43 341.86 233.01 335.94 235.17C330.01 237.32 323.44 234.25 321.29 228.33ZM435.59 228.33C433.88 223.63 420.21 186.06 418.5 181.37C427.56 183.2 436.45 185.28 445.08 187.59C446.28 190.88 455.87 217.21 457.07 220.5C459.23 226.43 456.16 233.01 450.24 235.17C444.32 237.32 437.74 234.25 435.59 228.33ZM439.04 377.15L484.76 331.43L566.89 331.43L566.89 377.15L439.04 377.15ZM274.28 418.13L187.57 331.43L360.99 331.43L274.28 418.13ZM73.11 331.43L155.24 331.43L200.96 377.15L73.11 377.15L73.11 331.43ZM393.32 331.43L452.43 331.43L365.72 418.13L336.17 388.58L393.32 331.43ZM107.4 468.59C75.89 468.59 50.25 442.95 50.25 411.44C50.25 405.14 55.37 400.01 61.68 400.01C72.49 400.01 126.54 400.01 223.82 400.01C249.25 425.43 263.37 439.56 266.2 442.38C268.43 444.62 271.35 445.73 274.28 445.73C277.2 445.73 280.13 444.62 282.36 442.38C284.87 439.87 297.42 427.33 320 404.75C342.58 427.33 355.13 439.87 357.64 442.38C359.87 444.62 362.8 445.73 365.72 445.73C368.65 445.73 371.57 444.62 373.8 442.38C376.63 439.56 390.75 425.43 416.18 400.01C513.46 400.01 567.51 400.01 578.32 400.01C584.63 400.01 589.75 405.14 589.75 411.44C589.75 442.95 564.11 468.59 532.6 468.59C447.56 468.59 149.92 468.59 107.4 468.59Z" id="d1E3TYT9E"></path><path d="M118.83 193.12C112.52 193.12 107.4 198.25 107.4 204.56C107.4 210.86 112.52 215.99 118.83 215.99C125.14 215.99 130.26 210.86 130.26 204.56C130.26 198.25 125.14 193.12 118.83 193.12Z" id="aprf8PMao"></path></defs><g><g><g><use xlink:href="#b6aw4puIDk" opacity="1" fill="#dbbb70" fill-opacity="1"></use><g><use xlink:href="#b6aw4puIDk" opacity="1" fill-opacity="0" stroke="#000000" stroke-width="1" stroke-opacity="0"></use></g></g><g><use xlink:href="#aPxIS60DH" opacity="1" fill="#d888a5" fill-opacity="1"></use><g><use xlink:href="#aPxIS60DH" opacity="1" fill-opacity="0" stroke="#000000" stroke-width="1" stroke-opacity="0"></use></g></g><g><use xlink:href="#fOTZMPGbf" opacity="1" fill="#c3ea21" fill-opacity="1"></use><g><use xlink:href="#fOTZMPGbf" opacity="1" fill-opacity="0" stroke="#000000" stroke-width="1" stroke-opacity="0"></use></g></g><g><use xlink:href="#bjsHMrCeJ" opacity="1" fill="#c3ea21" fill-opacity="1"></use><g><use xlink:href="#bjsHMrCeJ" opacity="1" fill-opacity="0" stroke="#000000" stroke-width="1" stroke-opacity="0"></use></g></g><g><use xlink:href="#djTaSfFnQ" opacity="1" fill="#dbbb70" fill-opacity="1"></use><g><use xlink:href="#djTaSfFnQ" opacity="1" fill-opacity="0" stroke="#000000" stroke-width="1" stroke-opacity="0"></use></g></g><g><use xlink:href="#d1E3TYT9E" opacity="1" fill="#000000" fill-opacity="1"></use><g><use xlink:href="#d1E3TYT9E" opacity="1" fill-opacity="0" stroke="#000000" stroke-width="1" stroke-opacity="0"></use></g></g><g><use xlink:href="#aprf8PMao" opacity="1" fill="#000000" fill-opacity="1"></use><g><use xlink:href="#aprf8PMao" opacity="1" fill-opacity="0" stroke="#000000" stroke-width="1" stroke-opacity="0"></use></g></g></g></g></svg>