<?xml version="1.0" encoding="UTF-8" standalone="no"?>
<!DOCTYPE svg PUBLIC "-//W3C//DTD SVG 1.1//EN" "http://www.w3.org/Graphics/SVG/1.1/DTD/svg11.dtd">
<svg version="1.1" xmlns="http://www.w3.org/2000/svg" xmlns:xlink="http://www.w3.org/1999/xlink" preserveAspectRatio="none" viewBox="10.822816743708 157.44158386628558 308.9806548613629 26.178489678834183" width="304.98" height="22.18"><defs><path d="M27.29 166.63C26.38 169.28 24.14 170.61 21.21 170.29C19.89 170.15 18.61 168.87 18.29 167.36C18.01 166.22 18.51 165.17 19.61 164.53C20.3 164.16 21.21 164.02 21.35 163.11C19.38 162.42 18.56 162.47 17.6 163.52C17.01 164.16 16.37 164.89 16.27 165.67C16.05 167.22 16.05 168.82 16.18 170.38C16.27 171.29 17.01 171.98 17.97 172.53C21.67 174.63 25.74 175.54 30.08 175.41C32.23 175.31 34.42 175.82 36.53 175.09C36.75 174.99 37.12 175.18 37.44 175.22C38.03 175.31 38.67 175.5 39.27 175.5C43.43 175.5 47.59 175.73 51.7 175.36C56.78 174.9 61.85 174.86 66.93 174.81C70.67 174.77 74.38 174.95 78.13 174.95C84.02 174.95 89.92 174.99 95.82 174.77C102.03 174.54 108.25 174.58 114.47 174.45C119.45 174.35 124.39 174.13 129.37 174.13C132.48 174.13 135.59 174.31 138.7 174.54C145.23 174.9 151.73 174.95 158.26 174.9C163.84 174.86 169.46 174.9 175.04 174.9C185.01 174.9 194.93 174.86 204.89 174.9C209.97 174.9 215.04 174.72 220.07 174.35C222.86 174.17 225.65 174.35 228.48 174.31C233.05 174.22 237.58 174.08 242.15 173.99C244.11 173.94 246.08 173.99 248.05 173.99C254.26 173.99 260.48 173.99 266.7 174.03C271.13 174.03 275.61 173.99 280.05 174.03C282.61 174.08 285.21 174.26 287.77 174.31C290.88 174.4 293.99 174.49 297.1 174.4C299.79 174.31 302.49 174.13 305.14 173.81C309.67 173.26 312.09 171.02 312.78 166.99C313.23 164.25 312.32 163.02 309.39 162.33C309.21 162.29 309.03 162.42 308.66 162.56C308.71 162.83 308.71 163.2 308.8 163.52C308.94 164.34 309.26 165.12 309.26 165.94C309.26 167.86 308.25 168.59 306.15 168.46C305.65 168.41 305.14 168.32 304.59 168.23C303.45 168 302.77 167.41 302.63 166.35C302.54 165.81 302.45 165.26 302.4 164.71C302.26 161.83 303.27 160.41 306.19 159.31C310.63 157.67 315.11 159.68 316.34 163.89C317.03 166.22 317.03 168.46 315.79 170.65C315.57 171.06 315.25 171.47 315.11 171.89C314.1 174.9 311.5 176.27 308.43 177.19C303.54 178.61 298.47 178.79 293.39 178.7C292.25 178.7 291.11 178.65 290.01 178.7C288.69 178.74 287.31 178.83 285.99 178.83C281.23 178.88 276.43 178.88 271.68 178.88C267.2 178.88 262.77 178.79 258.33 178.51C253.99 178.24 249.69 177.69 245.3 177.92C242.51 178.06 239.73 177.69 236.94 177.69C233.92 177.74 230.95 178.01 227.93 178.15C225.46 178.24 222.95 178.24 220.48 178.29C217.14 178.33 213.85 178.42 210.51 178.47C209.19 178.47 207.82 178.42 206.49 178.47C203.47 178.51 200.5 178.7 197.49 178.7C190.45 178.74 183.41 178.79 176.32 178.79C171.43 178.79 166.58 178.88 161.69 178.83C158.4 178.79 155.06 178.61 151.77 178.47C150.13 178.42 148.48 178.29 146.79 178.29C133.12 178.19 119.41 178.19 105.74 178.74C103.27 178.83 100.75 178.79 98.29 178.88C95.68 178.93 93.12 179.02 90.51 179.06C84.85 179.15 79.13 179.25 73.46 179.38C66.1 179.57 58.74 179.79 51.38 180.07C49.42 180.16 47.5 180.66 45.53 180.62C39.86 180.43 34.15 180.75 28.48 180.16C25.19 179.84 21.94 179.2 18.83 178.15C16.82 177.46 15.22 176.41 14.08 174.77C10.93 170.24 11.06 164.57 14.58 160.73C15.36 159.91 16.23 159.31 17.33 159.04C19.25 158.58 21.12 158.08 23.09 158.81C23.95 159.13 24.73 159.59 25.23 160.32C26.29 161.78 27.29 163.29 27.79 165.17C27.61 165.76 27.43 166.17 27.29 166.63Z" id="a6K6C2nTJ"></path><path d="M45.17 165.53C47.36 164.16 49.83 163.57 52.39 163.11C54.4 162.74 56.41 162.97 58.01 164.11C62.26 167.13 66.74 167.04 71.45 165.21C73.05 164.57 74.61 163.79 76.25 163.25C79.91 161.97 83.52 161.83 86.72 164.3C88.5 165.71 90.42 166.08 92.75 165.58C95.36 165.03 97.92 164.39 100.48 163.57C103.91 162.42 108.07 162.42 111.36 164.66C113.46 166.08 115.7 166.99 118.45 167.27C120.78 167.5 122.74 166.99 124.66 166.13C126.13 165.44 127.54 164.66 129.01 163.98C129.92 163.52 130.93 163.25 131.98 163.57C132.07 163.61 132.21 163.61 132.3 163.61C134.9 163.38 137.1 164.3 139.29 165.44C140.8 166.22 142.54 166.67 144.18 167.13C146.56 167.77 148.89 167.63 151.09 166.54C152.09 166.03 153.19 165.71 154.15 165.21C158.54 162.93 162.83 163.2 167.04 165.49C168.73 166.4 170.42 167.18 172.39 167.59C175.04 168.14 177.51 167.86 179.89 166.63C180.62 166.26 181.35 165.9 182.03 165.49C185.55 163.47 189.26 163.43 193.05 164.75C194.7 165.3 196.21 166.13 197.81 166.81C198.9 167.31 200 167.82 201.19 168.18C202.65 168.64 204.21 168.78 205.76 168.41C208.46 167.73 211.11 166.9 213.26 165.21C213.9 164.71 214.54 164.3 215.27 163.93C216.27 163.43 217.37 163.2 218.56 163.43C221.85 164.16 225.33 164.62 228.21 166.31C232.37 168.78 236.3 167.77 240.27 166.17C241.33 165.76 242.19 165.07 243.2 164.57C244.39 164.02 245.62 163.57 246.86 163.11C247.86 162.79 248.87 162.74 249.87 163.11C250.51 163.38 251.25 163.52 251.98 163.66C253.76 163.98 255.31 164.57 256.73 165.62C258.93 167.27 261.39 167.41 264.05 166.67C266.15 166.13 268.11 165.35 270.03 164.39C272.5 163.15 275.02 162.83 277.81 163.7C279.18 164.11 280.55 164.48 281.83 165.07C285.35 166.81 288.91 166.99 292.48 165.17C292.75 165.03 292.98 164.85 293.26 164.75C294.26 164.25 295.09 164.3 295.5 164.75C296.27 165.67 296.14 167.13 295.13 167.73C293.21 168.87 291.2 169.83 288.82 169.87C287.36 169.92 285.9 169.92 284.48 169.78C283.7 169.69 282.88 169.37 282.24 168.96C280.23 167.73 277.9 167.22 275.61 166.72C273.92 166.35 272.41 166.99 270.95 167.77C268.43 169.1 265.78 170.06 262.86 170.42C260.48 170.7 258.33 170.38 256.32 169.23C255.18 168.59 254.03 167.95 252.8 167.45C251.89 167.04 250.88 166.77 249.87 166.58C248.09 166.22 246.45 166.4 244.94 167.5C242.88 168.96 240.46 169.78 237.99 170.51C236.3 171.02 234.61 171.2 232.82 171.15C231.22 171.11 229.76 170.74 228.43 170.01C226.33 168.82 223.95 168.09 221.58 167.5C220.71 167.27 219.75 167.18 218.88 166.99C217.55 166.77 216.55 167.09 215.54 167.95C212.85 170.33 209.42 171.38 205.81 171.93C203.52 172.3 201.28 171.7 199.18 170.88C198.03 170.42 196.94 169.92 195.93 169.28C194.61 168.46 193.14 168.09 191.68 167.63C188.66 166.72 185.97 167.31 183.36 168.73C182.9 168.96 182.49 169.28 182.03 169.51C179.29 170.88 176.5 171.98 173.21 170.83C171.02 170.06 168.69 169.83 166.63 168.59C164.21 167.13 161.33 166.31 158.35 167.22C156.62 167.73 154.88 168.46 153.33 169.33C151.41 170.42 149.26 170.65 147.11 170.83C146.7 170.88 146.24 170.88 145.87 170.79C143.31 170.06 140.62 169.65 138.38 168.27C137.6 167.82 136.78 167.41 135.91 167.18C133.53 166.54 131.34 166.58 129.14 167.95C127.54 168.96 125.67 169.55 123.84 170.24C122.15 170.83 120.37 170.56 118.63 170.38C115.7 170.1 113.05 169.1 110.67 167.54C107.93 165.76 104.82 165.58 101.85 166.72C98.29 168.14 94.54 168.59 90.74 169.1C89.28 169.28 88.14 168.91 87.04 168.05C86.22 167.36 85.21 166.86 84.3 166.26C82.61 165.12 80.78 165.3 78.95 165.81C78.08 166.03 77.17 166.35 76.39 166.81C74.33 167.95 72.09 168.59 69.81 169.23C67.89 169.78 65.97 169.87 64 169.46C61.71 168.96 59.38 168.55 57.46 167.09C56.18 166.13 54.45 165.81 52.75 166.35C51.11 166.9 49.51 167.5 47.91 168.14C47.27 168.41 46.63 168.78 46.03 169.1C44.3 170.06 42.56 170.1 40.73 169.19C39.95 168.78 39.04 168.46 38.13 168.32C36.71 168.09 36.02 167.22 35.29 166.31C34.61 165.44 35.29 164.39 36.53 164.34C37.03 164.34 37.53 164.43 37.99 164.66C39.31 165.26 40.78 165.94 42.51 166.72C43.52 166.26 44.39 165.99 45.17 165.53Z" id="a1enqHgYnL"></path></defs><g><g><use xlink:href="#a6K6C2nTJ" opacity="1" fill="#000" fill-opacity="1"></use><g><use xlink:href="#a6K6C2nTJ" opacity="1" fill-opacity="0" stroke="#000000" stroke-width="1" stroke-opacity="0"></use></g></g><g><use xlink:href="#a1enqHgYnL" opacity="1" fill="#000" fill-opacity="1"></use><g><use xlink:href="#a1enqHgYnL" opacity="1" fill-opacity="0" stroke="#000000" stroke-width="1" stroke-opacity="0"></use></g></g></g></svg>