<?xml version="1.0" encoding="UTF-8" standalone="no"?>
<!DOCTYPE svg PUBLIC "-//W3C//DTD SVG 1.1//EN" "http://www.w3.org/Graphics/SVG/1.1/DTD/svg11.dtd">
<svg version="1.1" xmlns="http://www.w3.org/2000/svg" xmlns:xlink="http://www.w3.org/1999/xlink" preserveAspectRatio="xMidYMid meet" viewBox="0 0 640 640" width="640" height="640"><defs><path d="M40.9 4.76C42.87 4.45 44.85 4.65 46.43 5.6C50.61 8.14 55.02 8.07 59.65 6.53C61.22 5.99 62.76 5.34 64.37 4.88C67.97 3.81 71.53 3.69 74.67 5.76C76.43 6.95 78.31 7.26 80.61 6.84C83.17 6.38 85.69 5.84 88.21 5.15C91.59 4.18 95.68 4.18 98.92 6.07C100.98 7.26 103.19 8.02 105.89 8.26C108.18 8.45 110.11 8.02 112 7.3C113.45 6.72 114.84 6.07 116.28 5.49C117.18 5.11 118.17 4.88 119.2 5.15C119.29 5.18 119.43 5.18 119.52 5.18C122.08 4.99 124.24 5.76 126.4 6.72C127.88 7.38 129.59 7.76 131.21 8.14C133.55 8.68 135.84 8.56 138.01 7.65C138.99 7.22 140.07 6.95 141.02 6.53C145.34 4.61 149.56 4.84 153.7 6.76C155.36 7.53 157.02 8.18 158.96 8.53C161.57 8.99 164 8.76 166.34 7.72C167.06 7.41 167.78 7.11 168.45 6.76C171.91 5.07 175.56 5.03 179.29 6.14C180.91 6.6 182.4 7.3 183.97 7.87C185.05 8.29 186.13 8.72 187.3 9.02C188.73 9.41 190.27 9.53 191.79 9.22C194.45 8.65 197.06 7.95 199.17 6.53C199.8 6.11 200.43 5.76 201.15 5.45C202.14 5.03 203.22 4.84 204.39 5.03C207.63 5.65 211.05 6.03 213.88 7.45C217.98 9.53 221.84 8.68 225.75 7.34C226.79 6.99 227.64 6.41 228.63 5.99C229.8 5.53 231.01 5.15 232.23 4.76C233.22 4.49 234.21 4.45 235.19 4.76C235.82 4.99 236.55 5.11 237.27 5.23C239.02 5.49 240.55 5.99 241.94 6.87C244.11 8.26 246.53 8.38 249.15 7.76C251.21 7.3 253.14 6.65 255.03 5.84C257.46 4.8 259.94 4.53 262.68 5.26C264.03 5.6 265.38 5.91 266.64 6.41C270.1 7.87 273.6 8.02 277.12 6.49C277.38 6.38 277.61 6.23 277.88 6.14C278.87 5.72 279.68 5.76 280.09 6.14C280.85 6.92 280.72 8.14 279.72 8.65C277.84 9.6 275.86 10.41 273.52 10.44C272.08 10.49 270.64 10.49 269.25 10.37C268.48 10.29 267.67 10.02 267.04 9.68C265.06 8.65 262.77 8.22 260.52 7.8C258.86 7.49 257.37 8.02 255.93 8.68C253.45 9.8 250.85 10.6 247.97 10.91C245.63 11.14 243.52 10.87 241.54 9.91C240.42 9.37 239.29 8.83 238.08 8.41C237.18 8.07 236.19 7.84 235.19 7.68C233.44 7.38 231.83 7.53 230.34 8.45C228.32 9.68 225.94 10.37 223.51 10.98C221.84 11.41 220.18 11.56 218.42 11.52C216.84 11.49 215.41 11.18 214.1 10.56C212.03 9.56 209.69 8.95 207.36 8.45C206.5 8.26 205.56 8.18 204.7 8.02C203.39 7.84 202.41 8.11 201.42 8.83C198.77 10.83 195.4 11.71 191.84 12.18C189.59 12.49 187.39 11.98 185.32 11.29C184.19 10.91 183.12 10.49 182.12 9.95C180.82 9.26 179.38 8.95 177.94 8.56C174.97 7.8 172.32 8.29 169.76 9.49C169.3 9.68 168.9 9.95 168.45 10.14C165.75 11.29 163.01 12.22 159.77 11.25C157.61 10.6 155.32 10.41 153.3 9.37C150.91 8.14 148.08 7.45 145.15 8.22C143.45 8.65 141.74 9.26 140.21 9.99C138.32 10.91 136.21 11.1 134.09 11.25C133.69 11.29 133.23 11.29 132.87 11.22C130.35 10.6 127.7 10.26 125.5 9.1C124.73 8.72 123.93 8.38 123.07 8.18C120.73 7.65 118.57 7.68 116.41 8.83C114.84 9.68 113 10.18 111.2 10.76C109.53 11.25 107.78 11.02 106.07 10.87C103.19 10.64 100.58 9.8 98.24 8.49C95.54 6.99 92.48 6.84 89.56 7.8C86.06 8.99 82.37 9.37 78.63 9.8C77.19 9.95 76.07 9.64 74.99 8.92C74.18 8.34 73.19 7.92 72.29 7.41C70.63 6.45 68.83 6.6 67.03 7.03C66.17 7.22 65.28 7.49 64.51 7.87C62.48 8.83 60.28 9.37 58.04 9.91C56.15 10.37 54.26 10.44 52.32 10.1C50.07 9.68 47.77 9.34 45.89 8.11C44.63 7.3 42.92 7.03 41.25 7.49C39.64 7.95 38.06 8.45 36.49 8.99C35.86 9.22 35.23 9.53 34.64 9.8C32.94 10.6 31.23 10.64 29.43 9.87C28.66 9.53 27.76 9.26 26.87 9.14C25.47 8.95 24.79 8.22 24.07 7.45C23.4 6.72 24.07 5.84 25.29 5.8C25.78 5.8 26.28 5.87 26.73 6.07C28.03 6.57 29.47 7.14 31.18 7.8C32.17 7.41 33.03 7.18 33.79 6.8C35.95 5.65 38.38 5.15 40.9 4.76Z" id="e2DkB3a12"></path><path d="M40.9 4.76C42.87 4.45 44.85 4.65 46.43 5.6C50.61 8.14 55.02 8.07 59.65 6.53C61.22 5.99 62.76 5.34 64.37 4.88C67.97 3.81 71.53 3.69 74.67 5.76C76.43 6.95 78.31 7.26 80.61 6.84C83.17 6.38 85.69 5.84 88.21 5.15C91.59 4.18 95.68 4.18 98.92 6.07C100.98 7.26 103.19 8.02 105.89 8.26C108.18 8.45 110.11 8.02 112 7.3C113.45 6.72 114.84 6.07 116.28 5.49C117.18 5.11 118.17 4.88 119.2 5.15C119.29 5.18 119.43 5.18 119.52 5.18C122.08 4.99 124.24 5.76 126.4 6.72C127.88 7.38 129.59 7.76 131.21 8.14C133.55 8.68 135.84 8.56 138.01 7.65C138.99 7.22 140.07 6.95 141.02 6.53C145.34 4.61 149.56 4.84 153.7 6.76C155.36 7.53 157.02 8.18 158.96 8.53C161.57 8.99 164 8.76 166.34 7.72C167.06 7.41 167.78 7.11 168.45 6.76C171.91 5.07 175.56 5.03 179.29 6.14C180.91 6.6 182.4 7.3 183.97 7.87C185.05 8.29 186.13 8.72 187.3 9.02C188.73 9.41 190.27 9.53 191.79 9.22C194.45 8.65 197.06 7.95 199.17 6.53C199.8 6.11 200.43 5.76 201.15 5.45C202.14 5.03 203.22 4.84 204.39 5.03C207.63 5.65 211.05 6.03 213.88 7.45C217.98 9.53 221.84 8.68 225.75 7.34C226.79 6.99 227.64 6.41 228.63 5.99C229.8 5.53 231.01 5.15 232.23 4.76C233.22 4.49 234.21 4.45 235.19 4.76C235.82 4.99 236.55 5.11 237.27 5.23C239.02 5.49 240.55 5.99 241.94 6.87C244.11 8.26 246.53 8.38 249.15 7.76C251.21 7.3 253.14 6.65 255.03 5.84C257.46 4.8 259.94 4.53 262.68 5.26C264.03 5.6 265.38 5.91 266.64 6.41C270.1 7.87 273.6 8.02 277.12 6.49C277.38 6.38 277.61 6.23 277.88 6.14C278.87 5.72 279.68 5.76 280.09 6.14C280.85 6.92 280.72 8.14 279.72 8.65C277.84 9.6 275.86 10.41 273.52 10.44C272.08 10.49 270.64 10.49 269.25 10.37C268.48 10.29 267.67 10.02 267.04 9.68C265.06 8.65 262.77 8.22 260.52 7.8C258.86 7.49 257.37 8.02 255.93 8.68C253.45 9.8 250.85 10.6 247.97 10.91C245.63 11.14 243.52 10.87 241.54 9.91C240.42 9.37 239.29 8.83 238.08 8.41C237.18 8.07 236.19 7.84 235.19 7.68C233.44 7.38 231.83 7.53 230.34 8.45C228.32 9.68 225.94 10.37 223.51 10.98C221.84 11.41 220.18 11.56 218.42 11.52C216.84 11.49 215.41 11.18 214.1 10.56C212.03 9.56 209.69 8.95 207.36 8.45C206.5 8.26 205.56 8.18 204.7 8.02C203.39 7.84 202.41 8.11 201.42 8.83C198.77 10.83 195.4 11.71 191.84 12.18C189.59 12.49 187.39 11.98 185.32 11.29C184.19 10.91 183.12 10.49 182.12 9.95C180.82 9.26 179.38 8.95 177.94 8.56C174.97 7.8 172.32 8.29 169.76 9.49C169.3 9.68 168.9 9.95 168.45 10.14C165.75 11.29 163.01 12.22 159.77 11.25C157.61 10.6 155.32 10.41 153.3 9.37C150.91 8.14 148.08 7.45 145.15 8.22C143.45 8.65 141.74 9.26 140.21 9.99C138.32 10.91 136.21 11.1 134.09 11.25C133.69 11.29 133.23 11.29 132.87 11.22C130.35 10.6 127.7 10.26 125.5 9.1C124.73 8.72 123.93 8.38 123.07 8.18C120.73 7.65 118.57 7.68 116.41 8.83C114.84 9.68 113 10.18 111.2 10.76C109.53 11.25 107.78 11.02 106.07 10.87C103.19 10.64 100.58 9.8 98.24 8.49C95.54 6.99 92.48 6.84 89.56 7.8C86.06 8.99 82.37 9.37 78.63 9.8C77.19 9.95 76.07 9.64 74.99 8.92C74.18 8.34 73.19 7.92 72.29 7.41C70.63 6.45 68.83 6.6 67.03 7.03C66.17 7.22 65.28 7.49 64.51 7.87C62.48 8.83 60.28 9.37 58.04 9.91C56.15 10.37 54.26 10.44 52.32 10.1C50.07 9.68 47.77 9.34 45.89 8.11C44.63 7.3 42.92 7.03 41.25 7.49C39.64 7.95 38.06 8.45 36.49 8.99C35.86 9.22 35.23 9.53 34.64 9.8C32.94 10.6 31.23 10.64 29.43 9.87C28.66 9.53 27.76 9.26 26.87 9.14C25.47 8.95 24.79 8.22 24.07 7.45C23.4 6.72 24.07 5.84 25.29 5.8C25.78 5.8 26.28 5.87 26.73 6.07C28.03 6.57 29.47 7.14 31.18 7.8C32.17 7.41 33.03 7.18 33.79 6.8C35.95 5.65 38.38 5.15 40.9 4.76Z" id="c3VK6ohP6"></path></defs><g><g><g><use xlink:href="#e2DkB3a12" opacity="1" fill="#000000" fill-opacity="1"></use><g><use xlink:href="#e2DkB3a12" opacity="1" fill-opacity="0" stroke="#000000" stroke-width="1" stroke-opacity="0"></use></g></g><g><use xlink:href="#c3VK6ohP6" opacity="1" fill="#aad5d9" fill-opacity="1"></use><g><use xlink:href="#c3VK6ohP6" opacity="1" fill-opacity="0" stroke="#000000" stroke-width="1" stroke-opacity="0"></use></g></g></g></g></svg>