<?xml version="1.0" encoding="UTF-8" standalone="no"?>
<!DOCTYPE svg PUBLIC "-//W3C//DTD SVG 1.1//EN" "http://www.w3.org/Graphics/SVG/1.1/DTD/svg11.dtd">
<svg version="1.1" xmlns="http://www.w3.org/2000/svg" xmlns:xlink="http://www.w3.org/1999/xlink" preserveAspectRatio="none" viewBox="-1 188.62701544061397 390.43037088591444 239.9790209790211" width="386.43" height="235.98"><defs><path d="M274.09 189.63L278.72 189.73L283.3 190.02L287.83 190.5L292.3 191.17L296.72 192.03L301.07 193.06L305.36 194.27L309.58 195.65L313.73 197.19L317.8 198.91L321.79 200.78L325.7 202.81L329.52 204.99L333.25 207.31L336.88 209.79L340.42 212.4L343.85 215.16L347.18 218.04L350.4 221.06L353.51 224.2L356.5 227.47L359.37 230.85L362.12 234.34L364.74 237.95L367.23 241.67L369.59 245.48L371.81 249.4L373.88 253.41L375.81 257.52L377.6 261.71L379.23 265.98L380.7 270.34L382.01 274.77L383.16 279.28L384.15 283.85L384.96 288.49L385.6 293.19L386.06 297.95L386.34 302.76L386.43 307.62L386.34 312.48L386.06 317.29L385.6 322.04L384.96 326.74L384.15 331.38L383.16 335.96L382.01 340.46L380.7 344.89L379.23 349.25L377.6 353.52L375.81 357.72L373.88 361.82L371.81 365.83L369.59 369.75L367.23 373.57L364.74 377.28L362.12 380.89L359.37 384.39L356.5 387.77L353.51 391.03L350.4 394.17L347.18 397.19L343.85 400.08L340.42 402.83L336.88 405.44L333.25 407.92L329.52 410.25L325.7 412.43L321.79 414.46L317.8 416.33L313.73 418.04L309.58 419.59L305.36 420.97L301.07 422.17L296.72 423.21L292.3 424.06L287.83 424.73L283.3 425.21L278.72 425.51L274.09 425.61L274.09 425.61L0 425.61L0 189.63L274.09 189.63Z" id="c1LHRBR6Q"></path></defs><g><g><use xlink:href="#c1LHRBR6Q" opacity="1" fill="#fff" fill-opacity="1"></use></g></g></svg>